<svg width="484" height="85" viewBox="0 0 484 85" fill="none" xmlns="http://www.w3.org/2000/svg">
<path d="M15.204 64.6861V14.6971H1.78319C0.750816 14.6971 0 13.8546 0 12.9185V2.71476C0 1.77863 0.750816 0.936122 1.78319 0.936122H43.4534C44.4858 0.936122 45.2366 1.77863 45.2366 2.71476V12.9185C45.2366 13.8546 44.4858 14.6971 43.4534 14.6971H30.0326V64.6861C30.0326 65.6222 29.1879 66.4648 28.2494 66.4648H16.9872C16.0487 66.4648 15.204 65.6222 15.204 64.6861Z" fill="#41DED0"/>
<path d="M54.451 42.5V2.71476C54.451 1.77863 55.2956 0.936122 56.2342 0.936122H67.7779C68.8103 0.936122 69.5611 1.77863 69.5611 2.71476V41.7511C69.5611 48.5848 74.4414 52.4229 81.1049 52.4229C87.8623 52.4229 92.8364 48.5848 92.8364 41.7511V2.71476C92.8364 1.77863 93.5872 0.936122 94.6196 0.936122H106.163C107.102 0.936122 107.947 1.77863 107.947 2.71476V42.5C107.947 56.7291 95.9335 67.4009 81.1049 67.4009C66.3702 67.4009 54.451 56.7291 54.451 42.5Z" fill="#41DED0"/>
<path d="M122.106 64.6861V2.71476C122.106 1.77863 122.857 0.936122 123.889 0.936122H151.951C163.87 0.936122 172.41 10.0165 172.41 21.1564C172.41 29.7687 167.249 36.696 158.52 39.9725L171.378 63.75C172.035 64.967 171.378 66.4648 169.783 66.4648H157.3C156.549 66.4648 155.986 65.9967 155.799 65.6222L143.316 40.815H136.84V64.6861C136.84 65.6222 135.996 66.4648 135.057 66.4648H123.889C122.857 66.4648 122.106 65.6222 122.106 64.6861ZM136.84 28.9262H150.731C154.578 28.9262 157.863 25.837 157.863 21.4372C157.863 17.0374 154.578 14.3227 150.731 14.3227H136.84V28.9262Z" fill="#41DED0"/>
<path d="M180.492 33.7941C180.492 15.0716 195.414 0 214.185 0C232.955 0 247.971 15.0716 247.971 33.7941C247.971 45.9637 240.933 57.0099 230.609 63.2819L242.716 82.1916C243.467 83.5022 242.716 85 241.214 85H228.544C227.793 85 227.324 84.5319 227.042 84.0639L217.094 67.3073C215.968 67.4009 214.842 67.4009 214.185 67.4009C195.414 67.4009 180.492 52.5165 180.492 33.7941ZM195.508 33.7941C195.508 43.9978 203.955 52.4229 214.185 52.4229C224.508 52.4229 232.955 43.9978 232.955 33.7941C232.955 23.4967 224.508 14.978 214.185 14.978C203.955 14.978 195.508 23.4967 195.508 33.7941Z" fill="#41DED0"/>
<path d="M258.377 42.5V2.71476C258.377 1.77863 259.222 0.936122 260.16 0.936122H271.704C272.737 0.936122 273.487 1.77863 273.487 2.71476V41.7511C273.487 48.5848 278.368 52.4229 285.031 52.4229C291.789 52.4229 296.763 48.5848 296.763 41.7511V2.71476C296.763 1.77863 297.514 0.936122 298.546 0.936122H310.09C311.028 0.936122 311.873 1.77863 311.873 2.71476V42.5C311.873 56.7291 299.86 67.4009 285.031 67.4009C270.296 67.4009 258.377 56.7291 258.377 42.5Z" fill="#41DED0"/>
<path d="M322.278 33.7941C322.278 15.0716 337.2 0 355.971 0C374.741 0 389.757 15.0716 389.757 33.7941C389.757 52.5165 374.741 67.4009 355.971 67.4009C337.2 67.4009 322.278 52.5165 322.278 33.7941ZM337.294 33.7941C337.294 43.9978 345.741 52.4229 355.971 52.4229C366.294 52.4229 374.741 43.9978 374.741 33.7941C374.741 23.4967 366.294 14.978 355.971 14.978C345.741 14.978 337.294 23.4967 337.294 33.7941Z" fill="#41DED0"/>
<path d="M400.82 64.6861V2.71476C400.82 1.77863 401.665 0.936122 402.603 0.936122H413.866C414.804 0.936122 415.649 1.77863 415.649 2.71476V64.6861C415.649 65.6222 414.804 66.4648 413.866 66.4648H402.603C401.665 66.4648 400.82 65.6222 400.82 64.6861Z" fill="#41DED0"/>
<path d="M426.762 33.7941C426.762 15.0716 441.872 0 460.642 0C470.027 0 476.972 2.90198 483.354 8.70595C484.199 9.45485 484.199 10.5782 483.448 11.3271L476.128 18.9097C475.471 19.565 474.438 19.565 473.781 18.9097C469.933 15.5396 465.71 14.1355 461.111 14.1355C450.506 14.1355 442.716 22.935 442.716 33.4196C442.716 43.8106 450.6 52.4229 461.205 52.4229C466.367 52.4229 470.403 50.8315 473.781 47.9295C474.438 47.3678 475.658 47.3678 476.221 48.0231L483.542 55.793C484.199 56.4482 484.105 57.6652 483.448 58.3205C477.066 64.4989 468.995 67.4009 460.642 67.4009C441.872 67.4009 426.762 52.5165 426.762 33.7941Z" fill="#41DED0"/>
</svg>
